<svg width="109" height="26" viewBox="0 0 109 26" fill="none" xmlns="http://www.w3.org/2000/svg">
<g id="&#208;&#144;&#208;&#151;&#208;&#144;&#208;&#160;&#208;&#162;">
<path d="M5.38913 25.1857H0.766113L9.18327 1.27683H14.5301L22.9589 25.1857H18.3359L11.9501 6.18003H11.7633L5.38913 25.1857ZM5.5409 15.8113H18.1491V19.2902H5.5409V15.8113Z" fill="#FF4539"/>
<path d="M33.507 25.5126C31.8259 25.5126 30.3316 25.2247 29.0241 24.6487C27.7243 24.0728 26.697 23.2712 25.9421 22.2438C25.1871 21.2165 24.7863 20.0296 24.7396 18.6832H29.1292C29.1681 19.3292 29.3821 19.8934 29.7712 20.3759C30.1604 20.8507 30.6779 21.2204 31.3239 21.485C31.9699 21.7496 32.6937 21.8819 33.4953 21.8819C34.3514 21.8819 35.1103 21.7341 35.7718 21.4383C36.4334 21.1348 36.9509 20.7145 37.3245 20.1775C37.6981 19.6405 37.881 19.0217 37.8732 18.3213C37.881 17.5975 37.6942 16.9593 37.3128 16.4067C36.9315 15.8541 36.3789 15.4222 35.6551 15.1108C34.9391 14.7995 34.0752 14.6439 33.0634 14.6439H30.9503V11.305H33.0634C33.8962 11.305 34.6239 11.1611 35.2465 10.8731C35.8769 10.5851 36.3711 10.1804 36.7291 9.65896C37.0871 9.12973 37.2622 8.51877 37.2545 7.8261C37.2622 7.14899 37.1105 6.56139 36.7992 6.06329C36.4956 5.5574 36.0637 5.16436 35.5033 4.88418C34.9507 4.604 34.3009 4.46391 33.5537 4.46391C32.8221 4.46391 32.145 4.59622 31.5224 4.86083C30.8998 5.12545 30.3978 5.50292 30.0164 5.99324C29.635 6.47578 29.4327 7.05171 29.4093 7.72103H25.2416C25.2728 6.38238 25.658 5.20717 26.3974 4.1954C27.1445 3.17585 28.1407 2.382 29.386 1.81385C30.6312 1.23792 32.0283 0.949951 33.5771 0.949951C35.1725 0.949951 36.5579 1.24959 37.7331 1.84887C38.9161 2.44037 39.8306 3.23811 40.4766 4.2421C41.1225 5.24608 41.4455 6.35514 41.4455 7.56927C41.4533 8.9157 41.0564 10.0442 40.2547 10.9548C39.4609 11.8654 38.418 12.4608 37.126 12.741V12.9278C38.8071 13.1612 40.0952 13.7839 40.9902 14.7956C41.893 15.7996 42.3406 17.0488 42.3328 18.5431C42.3328 19.8817 41.9514 21.0803 41.1887 22.1388C40.4338 23.1894 39.3909 24.0144 38.06 24.6137C36.7369 25.213 35.2192 25.5126 33.507 25.5126Z" fill="#FF4539"/>
<path d="M48.3164 25.1857H43.6933L52.1105 1.27683H57.4573L65.8862 25.1857H61.2631L54.8773 6.18003H54.6905L48.3164 25.1857ZM48.4681 15.8113H61.0764V19.2902H48.4681V15.8113Z" fill="#FF4539"/>
<path d="M69.0353 25.1857V1.27683H78.0011C79.8379 1.27683 81.3789 1.61928 82.6242 2.30417C83.8772 2.98906 84.8228 3.93078 85.461 5.12934C86.107 6.32012 86.43 7.67433 86.43 9.19199C86.43 10.7252 86.107 12.0872 85.461 13.278C84.815 14.4688 83.8616 15.4066 82.6008 16.0915C81.34 16.7686 79.7873 17.1071 77.9428 17.1071H72.0006V13.5465H77.3591C78.4331 13.5465 79.3126 13.3597 79.9974 12.9861C80.6823 12.6126 81.1882 12.0989 81.5151 11.4451C81.8498 10.7914 82.0171 10.0403 82.0171 9.19199C82.0171 8.34366 81.8498 7.59651 81.5151 6.95053C81.1882 6.30455 80.6784 5.80256 79.9858 5.44455C79.3009 5.07875 78.4175 4.89586 77.3357 4.89586H73.3664V25.1857H69.0353Z" fill="#FF4539"/>
<path d="M89.1413 4.90753V1.27683H108.217V4.90753H100.827V25.1857H96.5312V4.90753H89.1413Z" fill="#FF4539"/>
</g>
</svg>
